<mxfile host="app.diagrams.net" agent="Mozilla/5.0 (Macintosh; Intel Mac OS X 10_15_7) AppleWebKit/537.36 (KHTML, like Gecko) Chrome/139.0.0.0 Safari/537.36 Edg/139.0.0.0" version="28.1.0">
  <diagram name="Report Service - A&amp;I" id="1YIPlWxTEJ8W7mqabqMT">
    <mxGraphModel dx="1927" dy="1058" grid="1" gridSize="10" guides="1" tooltips="1" connect="1" arrows="1" fold="1" page="1" pageScale="1" pageWidth="1920" pageHeight="1200" math="0" shadow="0">
      <root>
        <mxCell id="0" />
        <mxCell id="1" parent="0" />
        <mxCell id="2hkZbPnxHvf6jAYgh7-L-45" value="" style="endArrow=classic;html=1;rounded=0;entryX=1;entryY=0.5;entryDx=0;entryDy=0;exitX=0.528;exitY=1.002;exitDx=0;exitDy=0;exitPerimeter=0;" parent="1" source="2hkZbPnxHvf6jAYgh7-L-41" target="d6Js0XEYEXI5DrSHMX23-42" edge="1">
          <mxGeometry width="50" height="50" relative="1" as="geometry">
            <mxPoint x="1170" y="640" as="sourcePoint" />
            <mxPoint x="1150" y="660" as="targetPoint" />
            <Array as="points">
              <mxPoint x="1000" y="320" />
              <mxPoint x="1000" y="640" />
              <mxPoint x="1120" y="640" />
              <mxPoint x="1120" y="875" />
            </Array>
          </mxGeometry>
        </mxCell>
        <mxCell id="d6Js0XEYEXI5DrSHMX23-1" value="SNR Document Generator" style="rounded=0;whiteSpace=wrap;html=1;" parent="1" vertex="1">
          <mxGeometry x="1350" y="420" width="150" height="60" as="geometry" />
        </mxCell>
        <mxCell id="d6Js0XEYEXI5DrSHMX23-7" value="Report Service" style="text;html=1;align=center;verticalAlign=middle;whiteSpace=wrap;rounded=0;fontStyle=1" parent="1" vertex="1">
          <mxGeometry x="620" y="300" width="170" height="30" as="geometry" />
        </mxCell>
        <mxCell id="d6Js0XEYEXI5DrSHMX23-74" style="edgeStyle=orthogonalEdgeStyle;rounded=0;orthogonalLoop=1;jettySize=auto;html=1;exitX=0.5;exitY=0.5;exitDx=0;exitDy=0;exitPerimeter=0;" parent="1" source="d6Js0XEYEXI5DrSHMX23-27" edge="1">
          <mxGeometry relative="1" as="geometry">
            <mxPoint x="320" y="450" as="targetPoint" />
          </mxGeometry>
        </mxCell>
        <mxCell id="d6Js0XEYEXI5DrSHMX23-27" value="User" style="shape=umlActor;verticalLabelPosition=bottom;verticalAlign=top;html=1;outlineConnect=0;" parent="1" vertex="1">
          <mxGeometry x="270" y="438.75" width="10" height="22.5" as="geometry" />
        </mxCell>
        <mxCell id="d6Js0XEYEXI5DrSHMX23-37" value="&lt;span style=&quot;font-weight: normal;&quot;&gt;Report Table&lt;/span&gt;" style="swimlane;fontStyle=1;childLayout=stackLayout;horizontal=1;startSize=30;horizontalStack=0;resizeParent=1;resizeParentMax=0;resizeLast=0;collapsible=1;marginBottom=0;whiteSpace=wrap;html=1;" parent="1" vertex="1">
          <mxGeometry x="930" y="710" width="140" height="300" as="geometry">
            <mxRectangle x="40" y="250" width="60" height="30" as="alternateBounds" />
          </mxGeometry>
        </mxCell>
        <mxCell id="d6Js0XEYEXI5DrSHMX23-38" value="id" style="text;strokeColor=none;fillColor=none;align=left;verticalAlign=middle;spacingLeft=4;spacingRight=4;overflow=hidden;points=[[0,0.5],[1,0.5]];portConstraint=eastwest;rotatable=0;whiteSpace=wrap;html=1;" parent="d6Js0XEYEXI5DrSHMX23-37" vertex="1">
          <mxGeometry y="30" width="140" height="30" as="geometry" />
        </mxCell>
        <mxCell id="d6Js0XEYEXI5DrSHMX23-39" value="inspection request id" style="text;strokeColor=none;fillColor=none;align=left;verticalAlign=middle;spacingLeft=4;spacingRight=4;overflow=hidden;points=[[0,0.5],[1,0.5]];portConstraint=eastwest;rotatable=0;whiteSpace=wrap;html=1;" parent="d6Js0XEYEXI5DrSHMX23-37" vertex="1">
          <mxGeometry y="60" width="140" height="30" as="geometry" />
        </mxCell>
        <mxCell id="d6Js0XEYEXI5DrSHMX23-40" value="generation mode" style="text;strokeColor=none;fillColor=none;align=left;verticalAlign=middle;spacingLeft=4;spacingRight=4;overflow=hidden;points=[[0,0.5],[1,0.5]];portConstraint=eastwest;rotatable=0;whiteSpace=wrap;html=1;" parent="d6Js0XEYEXI5DrSHMX23-37" vertex="1">
          <mxGeometry y="90" width="140" height="30" as="geometry" />
        </mxCell>
        <mxCell id="d6Js0XEYEXI5DrSHMX23-41" value="retry count" style="text;strokeColor=none;fillColor=none;align=left;verticalAlign=middle;spacingLeft=4;spacingRight=4;overflow=hidden;points=[[0,0.5],[1,0.5]];portConstraint=eastwest;rotatable=0;whiteSpace=wrap;html=1;" parent="d6Js0XEYEXI5DrSHMX23-37" vertex="1">
          <mxGeometry y="120" width="140" height="30" as="geometry" />
        </mxCell>
        <mxCell id="d6Js0XEYEXI5DrSHMX23-42" value="status id" style="text;strokeColor=none;fillColor=none;align=left;verticalAlign=middle;spacingLeft=4;spacingRight=4;overflow=hidden;points=[[0,0.5],[1,0.5]];portConstraint=eastwest;rotatable=0;whiteSpace=wrap;html=1;" parent="d6Js0XEYEXI5DrSHMX23-37" vertex="1">
          <mxGeometry y="150" width="140" height="30" as="geometry" />
        </mxCell>
        <mxCell id="d6Js0XEYEXI5DrSHMX23-43" value="modified on" style="text;strokeColor=none;fillColor=none;align=left;verticalAlign=middle;spacingLeft=4;spacingRight=4;overflow=hidden;points=[[0,0.5],[1,0.5]];portConstraint=eastwest;rotatable=0;whiteSpace=wrap;html=1;" parent="d6Js0XEYEXI5DrSHMX23-37" vertex="1">
          <mxGeometry y="180" width="140" height="30" as="geometry" />
        </mxCell>
        <mxCell id="d6Js0XEYEXI5DrSHMX23-44" value="file/blob id" style="text;strokeColor=none;fillColor=none;align=left;verticalAlign=middle;spacingLeft=4;spacingRight=4;overflow=hidden;points=[[0,0.5],[1,0.5]];portConstraint=eastwest;rotatable=0;whiteSpace=wrap;html=1;" parent="d6Js0XEYEXI5DrSHMX23-37" vertex="1">
          <mxGeometry y="210" width="140" height="30" as="geometry" />
        </mxCell>
        <mxCell id="d6Js0XEYEXI5DrSHMX23-45" value="generation start time" style="text;strokeColor=none;fillColor=none;align=left;verticalAlign=middle;spacingLeft=4;spacingRight=4;overflow=hidden;points=[[0,0.5],[1,0.5]];portConstraint=eastwest;rotatable=0;whiteSpace=wrap;html=1;" parent="d6Js0XEYEXI5DrSHMX23-37" vertex="1">
          <mxGeometry y="240" width="140" height="30" as="geometry" />
        </mxCell>
        <mxCell id="2hkZbPnxHvf6jAYgh7-L-51" value="timestamp" style="text;strokeColor=none;fillColor=none;align=left;verticalAlign=middle;spacingLeft=4;spacingRight=4;overflow=hidden;points=[[0,0.5],[1,0.5]];portConstraint=eastwest;rotatable=0;whiteSpace=wrap;html=1;" parent="d6Js0XEYEXI5DrSHMX23-37" vertex="1">
          <mxGeometry y="270" width="140" height="30" as="geometry" />
        </mxCell>
        <mxCell id="d6Js0XEYEXI5DrSHMX23-50" value="A&amp;amp;I DB" style="shape=datastore;whiteSpace=wrap;html=1;fontStyle=0" parent="1" vertex="1">
          <mxGeometry x="890" y="620" width="60" height="60" as="geometry" />
        </mxCell>
        <mxCell id="d6Js0XEYEXI5DrSHMX23-54" value="" style="endArrow=classic;html=1;rounded=0;entryX=0.45;entryY=1;entryDx=0;entryDy=0;entryPerimeter=0;" parent="1" edge="1">
          <mxGeometry width="50" height="50" relative="1" as="geometry">
            <mxPoint x="919.52" y="610" as="sourcePoint" />
            <mxPoint x="919.52" y="580" as="targetPoint" />
          </mxGeometry>
        </mxCell>
        <mxCell id="d6Js0XEYEXI5DrSHMX23-56" value="" style="group;labelBackgroundColor=none;" parent="1" vertex="1" connectable="0">
          <mxGeometry x="590" y="340" width="680" height="230" as="geometry" />
        </mxCell>
        <mxCell id="d6Js0XEYEXI5DrSHMX23-3" value="" style="rounded=0;whiteSpace=wrap;html=1;" parent="d6Js0XEYEXI5DrSHMX23-56" vertex="1">
          <mxGeometry width="680" height="230" as="geometry" />
        </mxCell>
        <mxCell id="d6Js0XEYEXI5DrSHMX23-4" value="" style="rounded=0;whiteSpace=wrap;html=1;" parent="d6Js0XEYEXI5DrSHMX23-56" vertex="1">
          <mxGeometry x="20" y="10" width="200" height="210" as="geometry" />
        </mxCell>
        <mxCell id="d6Js0XEYEXI5DrSHMX23-8" value="API layer" style="text;html=1;align=center;verticalAlign=middle;whiteSpace=wrap;rounded=0;" parent="d6Js0XEYEXI5DrSHMX23-56" vertex="1">
          <mxGeometry x="80" y="20" width="60" height="30" as="geometry" />
        </mxCell>
        <mxCell id="d6Js0XEYEXI5DrSHMX23-29" value="&lt;span style=&quot;color: rgba(0, 0, 0, 0); font-family: monospace; font-size: 0px; text-align: start; text-wrap-mode: nowrap;&quot;&gt;%3CmxGraphModel%3E%3Croot%3E%3CmxCell%20id%3D%220%22%2F%3E%3CmxCell%20id%3D%221%22%20parent%3D%220%22%2F%3E%3CmxCell%20id%3D%222%22%20value%3D%22Repo%20layer%22%20style%3D%22text%3Bhtml%3D1%3Balign%3Dcenter%3BverticalAlign%3Dmiddle%3BwhiteSpace%3Dwrap%3Brounded%3D0%3B%22%20vertex%3D%221%22%20parent%3D%221%22%3E%3CmxGeometry%20x%3D%22710%22%20y%3D%22265%22%20width%3D%2280%22%20height%3D%2230%22%20as%3D%22geometry%22%2F%3E%3C%2FmxCell%3E%3CmxCell%20id%3D%223%22%20value%3D%22Fetch%20inspection%20and%20score%20related%20KPIs%20data%20from%20DB%22%20style%3D%22text%3Bhtml%3D1%3Balign%3Dcenter%3BverticalAlign%3Dmiddle%3BwhiteSpace%3Dwrap%3Brounded%3D0%3B%22%20vertex%3D%221%22%20parent%3D%221%22%3E%3CmxGeometry%20x%3D%22710%22%20y%3D%22300%22%20width%3D%2280%22%20height%3D%22130%22%20as%3D%22geometry%22%2F%3E%3C%2FmxCell%3E%3C%2Froot%3E%3C%2FmxGraphModel%3E&lt;/span&gt;" style="rounded=0;whiteSpace=wrap;html=1;" parent="d6Js0XEYEXI5DrSHMX23-56" vertex="1">
          <mxGeometry x="240" y="10" width="200" height="210" as="geometry" />
        </mxCell>
        <mxCell id="d6Js0XEYEXI5DrSHMX23-28" value="&lt;ol&gt;&lt;li&gt;API 1 - Fetches the latest report request ID by timestamp.&lt;br&gt;&lt;br&gt;&lt;/li&gt;&lt;li&gt;API 2 - Retrieves the PDF report for the latest request ID from blob storage.&lt;/li&gt;&lt;/ol&gt;&lt;div&gt;&lt;div&gt;&lt;br&gt;&lt;/div&gt;&lt;div&gt;&lt;br&gt;&lt;/div&gt;&lt;/div&gt;" style="text;strokeColor=none;fillColor=none;align=left;verticalAlign=middle;spacingLeft=4;spacingRight=4;overflow=hidden;points=[[0,0.5],[1,0.5]];portConstraint=eastwest;rotatable=0;whiteSpace=wrap;html=1;" parent="d6Js0XEYEXI5DrSHMX23-56" vertex="1">
          <mxGeometry x="10" y="50" width="200" height="140" as="geometry" />
        </mxCell>
        <mxCell id="d6Js0XEYEXI5DrSHMX23-30" value="Repo layer" style="text;html=1;align=center;verticalAlign=middle;whiteSpace=wrap;rounded=0;" parent="d6Js0XEYEXI5DrSHMX23-56" vertex="1">
          <mxGeometry x="290" y="20" width="80" height="30" as="geometry" />
        </mxCell>
        <mxCell id="d6Js0XEYEXI5DrSHMX23-32" value="&lt;span style=&quot;color: rgba(0, 0, 0, 0); font-family: monospace; font-size: 0px; text-align: start; text-wrap-mode: nowrap;&quot;&gt;%3CmxGraphModel%3E%3Croot%3E%3CmxCell%20id%3D%220%22%2F%3E%3CmxCell%20id%3D%221%22%20parent%3D%220%22%2F%3E%3CmxCell%20id%3D%222%22%20value%3D%22Repo%20layer%22%20style%3D%22text%3Bhtml%3D1%3Balign%3Dcenter%3BverticalAlign%3Dmiddle%3BwhiteSpace%3Dwrap%3Brounded%3D0%3B%22%20vertex%3D%221%22%20parent%3D%221%22%3E%3CmxGeometry%20x%3D%22710%22%20y%3D%22265%22%20width%3D%2280%22%20height%3D%2230%22%20as%3D%22geometry%22%2F%3E%3C%2FmxCell%3E%3CmxCell%20id%3D%223%22%20value%3D%22Fetch%20inspection%20and%20score%20related%20KPIs%20data%20from%20DB%22%20style%3D%22text%3Bhtml%3D1%3Balign%3Dcenter%3BverticalAlign%3Dmiddle%3BwhiteSpace%3Dwrap%3Brounded%3D0%3B%22%20vertex%3D%221%22%20parent%3D%221%22%3E%3CmxGeometry%20x%3D%22710%22%20y%3D%22300%22%20width%3D%2280%22%20height%3D%22130%22%20as%3D%22geometry%22%2F%3E%3C%2FmxCell%3E%3C%2Froot%3E%3C%2FmxGraphModel%3E&lt;/span&gt;" style="rounded=0;whiteSpace=wrap;html=1;" parent="d6Js0XEYEXI5DrSHMX23-56" vertex="1">
          <mxGeometry x="460" y="10" width="200" height="210" as="geometry" />
        </mxCell>
        <mxCell id="d6Js0XEYEXI5DrSHMX23-33" value="Service layer" style="text;html=1;align=center;verticalAlign=middle;whiteSpace=wrap;rounded=0;" parent="d6Js0XEYEXI5DrSHMX23-56" vertex="1">
          <mxGeometry x="520" y="20" width="80" height="30" as="geometry" />
        </mxCell>
        <mxCell id="d6Js0XEYEXI5DrSHMX23-35" value="&lt;span style=&quot;text-align: center;&quot;&gt;1. Fetch inspection details from the database.&lt;br&gt;&lt;br&gt;2. Fetch&amp;nbsp;&lt;/span&gt;&lt;span style=&quot;text-align: center;&quot;&gt;score related KPIs data from database.&lt;/span&gt;&lt;span style=&quot;text-align: center;&quot;&gt;&lt;br&gt;&lt;/span&gt;&lt;div&gt;&lt;div&gt;&lt;span style=&quot;text-align: center;&quot;&gt;&lt;br&gt;&lt;/span&gt;&lt;/div&gt;&lt;div&gt;&lt;span style=&quot;text-align: center;&quot;&gt;&lt;br&gt;&lt;/span&gt;&lt;/div&gt;&lt;/div&gt;" style="text;strokeColor=none;fillColor=none;align=left;verticalAlign=middle;spacingLeft=4;spacingRight=4;overflow=hidden;points=[[0,0.5],[1,0.5]];portConstraint=eastwest;rotatable=0;whiteSpace=wrap;html=1;" parent="d6Js0XEYEXI5DrSHMX23-56" vertex="1">
          <mxGeometry x="250" y="62.5" width="180" height="105" as="geometry" />
        </mxCell>
        <mxCell id="d6Js0XEYEXI5DrSHMX23-36" value="&lt;span style=&quot;text-align: center;&quot;&gt;1.&amp;nbsp;&lt;/span&gt;Dynamically generate report templates using selected sections and inspection data.&lt;span style=&quot;text-align: center;&quot;&gt;&lt;br&gt;&lt;br&gt;2.&amp;nbsp;&lt;/span&gt;Build graphs and tables to present score-related KPIs.&lt;span style=&quot;text-align: center;&quot;&gt;&lt;br&gt;&lt;/span&gt;&lt;div&gt;&lt;div&gt;&lt;span style=&quot;text-align: center;&quot;&gt;&lt;br&gt;&lt;/span&gt;&lt;/div&gt;&lt;div&gt;&lt;span style=&quot;text-align: center;&quot;&gt;&lt;br&gt;&lt;/span&gt;&lt;/div&gt;&lt;/div&gt;" style="text;strokeColor=none;fillColor=none;align=left;verticalAlign=middle;spacingLeft=4;spacingRight=4;overflow=hidden;points=[[0,0.5],[1,0.5]];portConstraint=eastwest;rotatable=0;whiteSpace=wrap;html=1;" parent="d6Js0XEYEXI5DrSHMX23-56" vertex="1">
          <mxGeometry x="470" y="62.5" width="180" height="117.5" as="geometry" />
        </mxCell>
        <mxCell id="d6Js0XEYEXI5DrSHMX23-61" value="" style="endArrow=classic;html=1;rounded=0;" parent="1" edge="1">
          <mxGeometry width="50" height="50" relative="1" as="geometry">
            <mxPoint x="1290" y="450.11" as="sourcePoint" />
            <mxPoint x="1330" y="449.67" as="targetPoint" />
          </mxGeometry>
        </mxCell>
        <mxCell id="d6Js0XEYEXI5DrSHMX23-63" value="" style="endArrow=classic;html=1;rounded=0;" parent="1" edge="1">
          <mxGeometry width="50" height="50" relative="1" as="geometry">
            <mxPoint x="1520" y="450.10999999999996" as="sourcePoint" />
            <mxPoint x="1560" y="449.66999999999996" as="targetPoint" />
          </mxGeometry>
        </mxCell>
        <mxCell id="d6Js0XEYEXI5DrSHMX23-64" value="&lt;span style=&quot;font-weight: normal;&quot;&gt;Inspection Response Table&lt;/span&gt;" style="swimlane;fontStyle=1;childLayout=stackLayout;horizontal=1;startSize=30;horizontalStack=0;resizeParent=1;resizeParentMax=0;resizeLast=0;collapsible=1;marginBottom=0;whiteSpace=wrap;html=1;" parent="1" vertex="1">
          <mxGeometry x="770" y="710" width="140" height="120" as="geometry" />
        </mxCell>
        <mxCell id="d6Js0XEYEXI5DrSHMX23-65" value="id" style="text;strokeColor=none;fillColor=none;align=left;verticalAlign=middle;spacingLeft=4;spacingRight=4;overflow=hidden;points=[[0,0.5],[1,0.5]];portConstraint=eastwest;rotatable=0;whiteSpace=wrap;html=1;" parent="d6Js0XEYEXI5DrSHMX23-64" vertex="1">
          <mxGeometry y="30" width="140" height="30" as="geometry" />
        </mxCell>
        <mxCell id="d6Js0XEYEXI5DrSHMX23-66" value="inspection request id" style="text;strokeColor=none;fillColor=none;align=left;verticalAlign=middle;spacingLeft=4;spacingRight=4;overflow=hidden;points=[[0,0.5],[1,0.5]];portConstraint=eastwest;rotatable=0;whiteSpace=wrap;html=1;" parent="d6Js0XEYEXI5DrSHMX23-64" vertex="1">
          <mxGeometry y="60" width="140" height="30" as="geometry" />
        </mxCell>
        <mxCell id="d6Js0XEYEXI5DrSHMX23-67" value="modified on" style="text;strokeColor=none;fillColor=none;align=left;verticalAlign=middle;spacingLeft=4;spacingRight=4;overflow=hidden;points=[[0,0.5],[1,0.5]];portConstraint=eastwest;rotatable=0;whiteSpace=wrap;html=1;" parent="d6Js0XEYEXI5DrSHMX23-64" vertex="1">
          <mxGeometry y="90" width="140" height="30" as="geometry" />
        </mxCell>
        <mxCell id="d6Js0XEYEXI5DrSHMX23-68" value="" style="endArrow=classic;html=1;rounded=0;entryX=0;entryY=0.5;entryDx=0;entryDy=0;" parent="1" target="d6Js0XEYEXI5DrSHMX23-43" edge="1">
          <mxGeometry relative="1" as="geometry">
            <mxPoint x="820" y="830" as="sourcePoint" />
            <mxPoint x="930.0000000000002" y="866.14" as="targetPoint" />
            <Array as="points">
              <mxPoint x="820" y="905" />
            </Array>
          </mxGeometry>
        </mxCell>
        <mxCell id="d6Js0XEYEXI5DrSHMX23-72" value="&lt;span style=&quot;color: rgba(0, 0, 0, 0); font-family: monospace; font-size: 0px; text-align: start; background-color: rgb(236, 236, 236);&quot;&gt;%3CmxGraphModel%3E%3Croot%3E%3CmxCell%20id%3D%220%22%2F%3E%3CmxCell%20id%3D%221%22%20parent%3D%220%22%2F%3E%3CmxCell%20id%3D%222%22%20value%3D%22Compare%20%26lt%3Bb%26gt%3Binspection%20id%26lt%3B%2Fb%26gt%3B%20and%26lt%3Bb%26gt%3B%20modified%20on%26lt%3B%2Fb%26gt%3B%20for%20a%20new%20insert%22%20style%3D%22edgeLabel%3Bresizable%3D0%3Bhtml%3D1%3B%3Balign%3Dright%3BverticalAlign%3Dmiddle%3BlabelPosition%3Dleft%3BverticalLabelPosition%3Dmiddle%3B%22%20connectable%3D%220%22%20vertex%3D%221%22%20parent%3D%221%22%3E%3CmxGeometry%20x%3D%22779.9034782608699%22%20y%3D%22790.1399999999996%22%20as%3D%22geometry%22%2F%3E%3C%2FmxCell%3E%3C%2Froot%3E%3C%2FmxGraphModel%3E&lt;/span&gt;&lt;span style=&quot;color: rgba(0, 0, 0, 0); font-family: monospace; font-size: 0px; text-align: start; background-color: rgb(236, 236, 236);&quot;&gt;%3CmxGraphModel%3E%3Croot%3E%3CmxCell%20id%3D%220%22%2F%3E%3CmxCell%20id%3D%221%22%20parent%3D%220%22%2F%3E%3CmxCell%20id%3D%222%22%20value%3D%22Compare%20%26lt%3Bb%26gt%3Binspection%20id%26lt%3B%2Fb%26gt%3B%20and%26lt%3Bb%26gt%3B%20modified%20on%26lt%3B%2Fb%26gt%3B%20for%20a%20new%20insert%22%20style%3D%22edgeLabel%3Bresizable%3D0%3Bhtml%3D1%3B%3Balign%3Dright%3BverticalAlign%3Dmiddle%3BlabelPosition%3Dleft%3BverticalLabelPosition%3Dmiddle%3B%22%20connectable%3D%220%22%20vertex%3D%221%22%20parent%3D%221%22%3E%3CmxGeometry%20x%3D%22779.9034782608699%22%20y%3D%22790.1399999999996%22%20as%3D%22geometry%22%2F%3E%3C%2FmxCell%3E%3C%2Froot%3E%3C%2FmxGraphModel%3E&lt;/span&gt;" style="edgeLabel;html=1;align=center;verticalAlign=middle;resizable=0;points=[];" parent="d6Js0XEYEXI5DrSHMX23-68" vertex="1" connectable="0">
          <mxGeometry x="0.1223" y="-2" relative="1" as="geometry">
            <mxPoint as="offset" />
          </mxGeometry>
        </mxCell>
        <mxCell id="d6Js0XEYEXI5DrSHMX23-73" value="Compare&amp;nbsp;&lt;b&gt;inspection id&lt;/b&gt;&amp;nbsp;and&lt;b&gt;&amp;nbsp;modified on&lt;/b&gt;&amp;nbsp;for a new insert" style="edgeLabel;resizable=0;html=1;;align=center;verticalAlign=middle;labelPosition=left;verticalLabelPosition=middle;whiteSpace=wrap;imageWidth=28;" parent="1" connectable="0" vertex="1">
          <mxGeometry x="760" y="890" as="geometry">
            <mxPoint x="20" y="10" as="offset" />
          </mxGeometry>
        </mxCell>
        <mxCell id="d6Js0XEYEXI5DrSHMX23-21" value="" style="rounded=0;whiteSpace=wrap;html=1;" parent="1" vertex="1">
          <mxGeometry x="1585" y="400" width="165" height="80" as="geometry" />
        </mxCell>
        <mxCell id="d6Js0XEYEXI5DrSHMX23-57" value="&lt;b&gt;Container 1&lt;/b&gt;&lt;div&gt;Final reports&lt;/div&gt;" style="whiteSpace=wrap;html=1;aspect=fixed;" parent="1" vertex="1">
          <mxGeometry x="1595" y="412.5" width="75" height="75" as="geometry" />
        </mxCell>
        <mxCell id="d6Js0XEYEXI5DrSHMX23-58" value="Blob Storage" style="text;html=1;align=center;verticalAlign=middle;whiteSpace=wrap;rounded=0;fontStyle=1" parent="1" vertex="1">
          <mxGeometry x="1580" y="360" width="160" height="30" as="geometry" />
        </mxCell>
        <mxCell id="sHj_UfKYaeUGQFyIhz4J-3" value="" style="rounded=0;whiteSpace=wrap;html=1;rotation=90;" parent="1" vertex="1">
          <mxGeometry x="330.63" y="376.87" width="170" height="146.25" as="geometry" />
        </mxCell>
        <mxCell id="sHj_UfKYaeUGQFyIhz4J-4" value="" style="endArrow=classic;html=1;rounded=0;" parent="1" edge="1">
          <mxGeometry width="50" height="50" relative="1" as="geometry">
            <mxPoint x="520" y="450.21999999999997" as="sourcePoint" />
            <mxPoint x="560" y="449.78" as="targetPoint" />
          </mxGeometry>
        </mxCell>
        <mxCell id="2hkZbPnxHvf6jAYgh7-L-7" value="Web App" style="text;html=1;align=center;verticalAlign=middle;whiteSpace=wrap;rounded=0;fontStyle=1" parent="1" vertex="1">
          <mxGeometry x="330.63" y="310" width="170" height="30" as="geometry" />
        </mxCell>
        <mxCell id="2hkZbPnxHvf6jAYgh7-L-23" value="" style="html=1;verticalLabelPosition=bottom;align=center;labelBackgroundColor=#ffffff;verticalAlign=top;strokeWidth=2;strokeColor=#0080F0;shadow=0;dashed=0;shape=mxgraph.ios7.icons.repeat;pointerEvents=1" parent="1" vertex="1">
          <mxGeometry x="400.63" y="396" width="30" height="24" as="geometry" />
        </mxCell>
        <mxCell id="2hkZbPnxHvf6jAYgh7-L-25" value="Polling API to check report status and download" style="text;html=1;align=center;verticalAlign=middle;whiteSpace=wrap;rounded=0;" parent="1" vertex="1">
          <mxGeometry x="364.85" y="438.75" width="101.56" height="60" as="geometry" />
        </mxCell>
        <mxCell id="2hkZbPnxHvf6jAYgh7-L-40" value="" style="group" parent="1" vertex="1" connectable="0">
          <mxGeometry x="820" y="240" width="690" height="20" as="geometry" />
        </mxCell>
        <mxCell id="2hkZbPnxHvf6jAYgh7-L-27" value="" style="endArrow=none;html=1;rounded=0;" parent="2hkZbPnxHvf6jAYgh7-L-40" edge="1">
          <mxGeometry width="50" height="50" relative="1" as="geometry">
            <mxPoint as="sourcePoint" />
            <mxPoint x="690" as="targetPoint" />
          </mxGeometry>
        </mxCell>
        <mxCell id="2hkZbPnxHvf6jAYgh7-L-31" value="" style="endArrow=none;html=1;rounded=0;" parent="2hkZbPnxHvf6jAYgh7-L-40" edge="1">
          <mxGeometry width="50" height="50" relative="1" as="geometry">
            <mxPoint y="20" as="sourcePoint" />
            <mxPoint as="targetPoint" />
          </mxGeometry>
        </mxCell>
        <mxCell id="2hkZbPnxHvf6jAYgh7-L-32" value="" style="endArrow=none;html=1;rounded=0;" parent="2hkZbPnxHvf6jAYgh7-L-40" edge="1">
          <mxGeometry width="50" height="50" relative="1" as="geometry">
            <mxPoint x="690" y="20" as="sourcePoint" />
            <mxPoint x="690" as="targetPoint" />
          </mxGeometry>
        </mxCell>
        <mxCell id="2hkZbPnxHvf6jAYgh7-L-41" value="Background Service" style="text;html=1;align=center;verticalAlign=middle;whiteSpace=wrap;rounded=0;fontStyle=1" parent="1" vertex="1">
          <mxGeometry x="910" y="210" width="170" height="30" as="geometry" />
        </mxCell>
        <mxCell id="2hkZbPnxHvf6jAYgh7-L-43" value="" style="sketch=0;outlineConnect=0;fontColor=#232F3E;gradientColor=none;fillColor=#7AA116;strokeColor=none;dashed=0;verticalLabelPosition=bottom;verticalAlign=top;align=center;html=1;fontSize=12;fontStyle=0;aspect=fixed;pointerEvents=1;shape=mxgraph.aws4.multiple_volumes_resource;" parent="1" vertex="1">
          <mxGeometry x="990" y="180" width="34" height="26.15" as="geometry" />
        </mxCell>
        <mxCell id="2hkZbPnxHvf6jAYgh7-L-44" value="&lt;span style=&quot;text-align: center;&quot;&gt;(Multiple instances)&lt;/span&gt;" style="text;whiteSpace=wrap;html=1;" parent="1" vertex="1">
          <mxGeometry x="1030" y="180" width="170" height="40" as="geometry" />
        </mxCell>
        <mxCell id="2hkZbPnxHvf6jAYgh7-L-49" value="&lt;div style=&quot;&quot;&gt;BG service updates the &lt;b&gt;status id&lt;/b&gt;&lt;/div&gt;" style="edgeLabel;resizable=0;html=1;;align=center;verticalAlign=middle;labelPosition=left;verticalLabelPosition=middle;imageWidth=28;whiteSpace=wrap;" parent="1" connectable="0" vertex="1">
          <mxGeometry x="1120" y="730" as="geometry">
            <mxPoint x="-1" y="9" as="offset" />
          </mxGeometry>
        </mxCell>
        <mxCell id="NaAVM0OuelZfq5Zahp3e-1" value="*This nuget package is already availabe" style="text;html=1;align=center;verticalAlign=middle;whiteSpace=wrap;rounded=0;" vertex="1" parent="1">
          <mxGeometry x="1345" y="493.12" width="160" height="30" as="geometry" />
        </mxCell>
        <mxCell id="NaAVM0OuelZfq5Zahp3e-2" value="&lt;b&gt;Container 2&lt;/b&gt;&lt;div&gt;Draft reports&lt;/div&gt;" style="whiteSpace=wrap;html=1;aspect=fixed;" vertex="1" parent="1">
          <mxGeometry x="1680" y="412.5" width="75" height="75" as="geometry" />
        </mxCell>
        <mxCell id="NaAVM0OuelZfq5Zahp3e-3" value="" style="endArrow=none;dashed=1;html=1;dashPattern=1 3;strokeWidth=2;rounded=0;" edge="1" parent="1">
          <mxGeometry width="50" height="50" relative="1" as="geometry">
            <mxPoint x="820" y="600" as="sourcePoint" />
            <mxPoint x="820" y="260" as="targetPoint" />
          </mxGeometry>
        </mxCell>
        <mxCell id="NaAVM0OuelZfq5Zahp3e-4" value="" style="endArrow=none;dashed=1;html=1;dashPattern=1 3;strokeWidth=2;rounded=0;" edge="1" parent="1">
          <mxGeometry width="50" height="50" relative="1" as="geometry">
            <mxPoint x="1510" y="600" as="sourcePoint" />
            <mxPoint x="1510" y="260" as="targetPoint" />
          </mxGeometry>
        </mxCell>
        <mxCell id="NaAVM0OuelZfq5Zahp3e-5" value="" style="endArrow=none;dashed=1;html=1;dashPattern=1 3;strokeWidth=2;rounded=0;" edge="1" parent="1">
          <mxGeometry width="50" height="50" relative="1" as="geometry">
            <mxPoint x="820" y="600" as="sourcePoint" />
            <mxPoint x="1510" y="600" as="targetPoint" />
          </mxGeometry>
        </mxCell>
      </root>
    </mxGraphModel>
  </diagram>
</mxfile>
